<?xml version="1.0" encoding="UTF-8"?>
<svg xmlns="http://www.w3.org/2000/svg" xmlns:xlink="http://www.w3.org/1999/xlink" width="314px" height="84px" viewBox="0 0 314 84" version="1.1">
<g id="surface1">
<path style=" stroke:none;fill-rule:evenodd;fill:rgb(0%,0%,0%);fill-opacity:1;" d="M 268.269531 56.972656 L 268.269531 53.707031 C 265.796875 55.753906 259.957031 56.972656 253.34375 56.972656 C 242.082031 56.972656 234.347656 53.414062 234.347656 47.714844 C 234.347656 42.035156 242.082031 38.460938 253.34375 38.460938 C 259.828125 38.460938 265.882812 40.257812 268.269531 42.269531 L 268.269531 31.925781 L 277.769531 31.925781 L 277.769531 56.972656 Z M 256.058594 41.726562 C 249.316406 41.726562 243.847656 44.1875 243.847656 47.714844 C 243.847656 51.261719 249.335938 53.765625 256.074219 53.765625 C 262.773438 53.765625 268.269531 51.226562 268.269531 47.714844 C 268.269531 44.222656 262.757812 41.726562 256.058594 41.726562 Z M 219.421875 46.082031 L 219.421875 56.972656 L 208.566406 56.972656 L 208.566406 38.460938 L 219.421875 38.460938 L 219.421875 42.042969 L 219.636719 42.042969 C 221.089844 39.890625 224.945312 38.460938 230.277344 38.460938 C 231.644531 38.460938 232.179688 38.375 232.992188 38.460938 L 232.992188 42.269531 L 228.921875 42.269531 C 222.90625 42.269531 219.421875 43.5 219.421875 46.082031 Z M 192.285156 56.972656 L 192.285156 53.707031 C 189.792969 55.679688 183.265625 56.972656 177.359375 56.972656 C 168.578125 56.972656 162.421875 55.246094 162.421875 51.945312 C 162.421875 48.644531 168.585938 46.742188 179.851562 46.460938 L 192.285156 46.082031 L 192.285156 44.992188 C 192.285156 43.054688 188.183594 41.695312 182.785156 41.703125 C 178.226562 41.707031 175.320312 42.4375 174.644531 43.90625 L 165.148438 43.90625 C 165.441406 40.5 172.554688 38.464844 183.230469 38.464844 C 194.457031 38.464844 201.800781 40.875 201.800781 44.558594 L 201.78125 56.972656 Z M 192.285156 48.804688 L 181.429688 48.804688 C 175.941406 48.960938 171.929688 50.042969 171.929688 51.527344 C 171.929688 52.996094 176.011719 54.234375 180.695312 54.234375 C 186.730469 54.234375 192.285156 52.640625 192.285156 50.4375 Z M 132.382812 53.75 C 140.53125 53.75 145.800781 51.800781 147.507812 48.804688 L 158.363281 48.804688 C 156.445312 54.125 147.128906 56.972656 132.582031 56.972656 C 115.003906 56.972656 104.085938 52.417969 104.085938 44.449219 C 104.085938 36.53125 115.089844 31.925781 132.582031 31.925781 C 146.871094 31.925781 156.996094 35.300781 158.363281 40.636719 L 147.507812 40.636719 C 146.058594 37.523438 140.558594 35.191406 132.582031 35.191406 C 122 35.191406 113.585938 38.90625 113.585938 44.449219 C 113.585938 50.027344 121.71875 53.75 132.382812 53.75 Z M 81.714844 57.519531 C 76.71875 57.519531 74.929688 56.246094 69.171875 56.246094 C 62.984375 56.246094 61.234375 57.519531 56.5 57.519531 C 51.25 57.519531 47.542969 55.488281 44.253906 53.59375 C 39.988281 51.113281 36.363281 47.226562 36.234375 43.488281 C 36.148438 41.507812 37.089844 39.5625 39.480469 37.910156 C 42.847656 35.605469 48.863281 34.039062 55.433594 33.988281 C 60.46875 33.917969 64.949219 35.382812 68.015625 35.382812 C 70.960938 35.382812 76.464844 33.988281 82.695312 33.988281 C 85.382812 33.988281 91.507812 34.074219 95.945312 36.828125 C 95.601562 36.914062 88.496094 38.980469 88.496094 43.023438 C 88.882812 47.636719 98.488281 48.804688 98.660156 48.804688 C 98.488281 48.890625 97.453125 51.457031 93.53125 53.679688 C 90.417969 55.589844 86.960938 57.519531 81.714844 57.519531 Z M 67.449219 33.558594 C 66.554688 31.75 69.21875 29.8125 71.519531 28.660156 C 74.464844 27.265625 79.722656 26.480469 83.734375 26.480469 C 83.988281 28.289062 81.207031 30.089844 78.304688 31.382812 C 75.703125 32.773438 71.589844 33.765625 67.449219 33.558594 Z M 67.449219 33.558594 "/>
</g>
</svg>
